<svg id="Capa_1" enable-background="new 0 0 512 512" height="512" viewBox="0 0 512 512" width="512" xmlns="http://www.w3.org/2000/svg"><g><path d="m512 236.338c0-110.269-114.615-167.54-256-167.54s-256 57.271-256 167.54c0 83.291 65.397 136.34 158.327 157.313 9.211 2.079 16.984 8.198 21.095 16.699 17.086 35.341 38.604 69.395 59.675 93.901 8.883 10.331 24.924 10.331 33.806 0 21.072-24.506 42.589-58.56 59.675-93.901 4.11-8.502 11.883-14.62 21.094-16.699 92.931-20.973 158.328-74.022 158.328-157.313z" fill="#fbf1cf"/><path d="m179.421 410.351c17.086 35.341 38.604 69.395 59.675 93.901 8.883 10.331 24.924 10.331 33.806 0 17.57-20.434 35.441-47.514 50.804-76.437-251.028-98.975-207.361-264.053-163.817-349.134-93.755 20.731-159.889 73.901-159.889 157.657 0 83.291 65.397 136.34 158.327 157.313 9.211 2.079 16.984 8.198 21.094 16.7z" fill="#f5e2a2"/><g><path d="m256 0c34.78 0 59.063 21.457 70.203 38.335l-12.173 68.938c-2.56-20.625-28.034-36.146-58.03-36.146s-55.47 15.521-58.03 36.146l-12.173-68.938c11.14-16.878 35.423-38.335 70.203-38.335z" fill="#eda1ab"/><path d="m256 0c-76.96 0-104.534 174.123 115.1 231.315 9.118 2.374 11.22 14.369 3.445 19.693l-16.451 11.266c-3.68 2.52-5.286 7.145-3.959 11.403l7.456 23.935c2.34 7.513-4.699 14.585-12.218 12.264-110.568-34.128-204.289-132.951-204.289-209.073 0-64.848 55.141-100.803 110.916-100.803z" fill="#f4c8d2"/><path d="m239.746 161.463c-15.829 12.617-34.965 23.648-56.996 32.852 23.175 30.609 55.569 59.609 92.985 82.224 16.267-11.919 31.391-25.001 45.163-39.1 5.425-5.554 10.549-11.18 15.378-16.863-43.467-15.693-74.881-36.515-96.53-59.113z" fill="#eda1ab"/><path d="m256 0c76.96 0 104.534 174.123-115.1 231.315-9.118 2.374-11.219 14.369-3.445 19.693l16.451 11.266c3.68 2.52 5.286 7.145 3.959 11.403l-7.456 23.935c-2.34 7.513 4.699 14.585 12.218 12.264 110.568-34.128 204.29-132.951 204.29-209.073-.001-64.848-55.142-100.803-110.917-100.803z" fill="#f4c8d2"/></g><g fill="#4e5660"><path d="m307.068 367.634h-102.136c-4.142 0-7.5-3.357-7.5-7.5s3.358-7.5 7.5-7.5h102.137c4.142 0 7.5 3.357 7.5 7.5-.001 4.142-3.358 7.5-7.501 7.5z"/><path d="m285.154 328.364h-58.308c-4.142 0-7.5-3.357-7.5-7.5s3.358-7.5 7.5-7.5h58.308c4.143 0 7.5 3.357 7.5 7.5s-3.357 7.5-7.5 7.5z"/></g></g></svg>